<?xml version="1.0" encoding="UTF-8" standalone="no"?>
<!-- Created with Inkscape (http://www.inkscape.org/) -->

<svg
   width="94.849998mm"
   height="53.849998mm"
   viewBox="0 0 94.849999 53.849998"
   version="1.1"
   id="svg1"
   xml:space="preserve"
   inkscape:version="1.4 (86a8ad7, 2024-10-11)"
   sodipodi:docname="BackSilkScreen.svg"
   inkscape:export-filename="BackSilkScreen.svg"
   inkscape:export-xdpi="96"
   inkscape:export-ydpi="96"
   xmlns:inkscape="http://www.inkscape.org/namespaces/inkscape"
   xmlns:sodipodi="http://sodipodi.sourceforge.net/DTD/sodipodi-0.dtd"
   xmlns="http://www.w3.org/2000/svg"
   xmlns:svg="http://www.w3.org/2000/svg"><sodipodi:namedview
     id="namedview1"
     pagecolor="#ffffff"
     bordercolor="#000000"
     borderopacity="0.25"
     inkscape:showpageshadow="2"
     inkscape:pageopacity="0.0"
     inkscape:pagecheckerboard="0"
     inkscape:deskcolor="#d1d1d1"
     inkscape:document-units="mm"
     showgrid="true"
     inkscape:zoom="2.7134825"
     inkscape:cx="157.36236"
     inkscape:cy="126.95862"
     inkscape:window-width="1920"
     inkscape:window-height="1057"
     inkscape:window-x="-8"
     inkscape:window-y="-8"
     inkscape:window-maximized="1"
     inkscape:current-layer="layer1"><inkscape:grid
       id="grid2"
       units="mm"
       originx="0"
       originy="0"
       spacingx="0.99999999"
       spacingy="0.99999997"
       empcolor="#0099e5"
       empopacity="0.30196078"
       color="#0099e5"
       opacity="0.14901961"
       empspacing="5"
       enabled="true"
       visible="true" /></sodipodi:namedview><defs
     id="defs1" /><g
     inkscape:label="Layer 1"
     inkscape:groupmode="layer"
     id="layer1"><path
       style="fill:#000000;stroke-width:0.155486"
       d="M 7.0414915,52.509538 C 5.2973349,52.414118 3.6769219,52.05634 2.7096629,51.553097 c -0.387848,-0.201789 -0.58482,-0.360489 -0.759334,-0.611794 -0.133224,-0.191848 -0.133524,-0.193435 -0.141199,-0.747634 -0.0043,-0.305457 0.0022,-0.518353 0.01428,-0.4731 0.01208,0.04525 0.03766,0.09884 0.05683,0.119084 0.112009,0.118229 0.09584,-0.738007 -0.01825,-0.966719 -0.05603,-0.1123 -0.06482,-0.3026 -0.05957,-1.287635 0.0034,-0.635723 0.01343,-1.100323 0.02233,-1.032443 0.04511,0.344228 0.134453,0.259729 0.135425,-0.128087 7.6e-4,-0.300021 -0.06715,-0.689221 -0.123591,-0.708408 -0.02525,-0.0086 -0.03824,-0.446926 -0.03474,-1.172467 0.0031,-0.637314 0.0139,-1.112469 0.02406,-1.055903 0.02858,0.159319 0.08588,0.189729 0.117801,0.06253 0.02983,-0.118822 -0.0032,-0.714806 -0.04845,-0.874562 -0.01435,-0.05065 -0.04269,-0.08184 -0.06298,-0.0693 -0.02166,0.01338 -0.03635,-1.504135 -0.03561,-3.675261 0.0012,-3.535486 0.0048,-3.710339 0.08116,-3.977363 0.07542,-0.263734 0.315273,-0.79931 0.37941,-0.847202 0.01621,-0.01211 0.05843,-0.08616 0.09381,-0.164557 0.03538,-0.0784 0.119569,-0.235108 0.187088,-0.34824 0.06751,-0.113133 0.150823,-0.261234 0.185125,-0.329114 0.0343,-0.06788 0.117585,-0.21598 0.185075,-0.329113 0.06749,-0.113132 0.145778,-0.251977 0.173974,-0.308543 0.02819,-0.05656 0.129875,-0.235666 0.225951,-0.397999 0.09608,-0.162334 0.174687,-0.308978 0.174687,-0.325875 0,-0.0169 0.025,-0.05995 0.05556,-0.09567 0.03057,-0.03572 0.118498,-0.18528 0.195411,-0.332352 0.07691,-0.147073 0.150461,-0.276662 0.163437,-0.287975 0.01297,-0.01132 0.09628,-0.159414 0.185125,-0.329112 0.08884,-0.169699 0.172152,-0.317801 0.185127,-0.329114 0.01297,-0.01132 0.09628,-0.159413 0.185126,-0.329114 0.08884,-0.169697 0.172082,-0.317798 0.184974,-0.329112 0.01289,-0.01132 0.07885,-0.122389 0.146569,-0.246836 0.06772,-0.124445 0.375878,-0.67468 0.68479,-1.222745 0.3089146,-0.548064 0.6032956,-1.075672 0.6541816,-1.172462 0.08511,-0.161897 0.09428,-0.246797 0.114552,-1.060476 0.02505,-1.005742 0.03203,-1.028144 0.395272,-1.268745 0.486843,-0.322471 1.764184,-0.420409 2.530877,-0.19405 0.402066,0.118708 0.720504,0.357338 0.816453,0.611835 0.024808,0.06581 0.04367,0.431571 0.04367,0.847098 0,0.493887 0.01791,0.790172 0.05517,0.912667 0.0567,0.186433 0.426166,0.855261 2.777592,5.028191 0.749887,1.330781 1.363434,2.43691 1.363434,2.458063 0,0.02115 0.01851,0.03846 0.04114,0.03846 0.02263,0 0.04114,0.03593 0.04114,0.07985 0,0.04391 0.01734,0.09056 0.03853,0.103657 0.02119,0.01309 0.03786,0.05585 0.03705,0.09499 -7.61e-4,0.03915 0.01831,0.210029 0.04249,0.379726 0.02889,0.202767 0.04214,1.56376 0.03865,3.969926 -0.0029,2.013762 -0.01278,3.601219 -0.0219,3.527681 -0.0091,-0.07354 -0.03209,-0.133701 -0.05102,-0.133701 -0.101559,0 -0.187253,0.941454 -0.09417,1.034542 0.07283,0.07283 0.112034,-0.0484 0.135003,-0.417455 0.01197,-0.192327 0.02123,1.399759 0.02057,3.537966 -0.0015,4.393206 0.02819,4.019073 -0.346189,4.385668 -0.939885,0.920347 -4.036477,1.510165 -7.060049,1.344748 z m -0.0015,-1.057884 c 0.368331,-0.153898 0.348947,-0.721107 -0.0308,-0.90131 -0.179128,-0.085 -0.326881,-0.08722 -0.481569,-0.0072 -0.323895,0.167492 -0.33677,0.611296 -0.02447,0.843587 0.184172,0.136992 0.323955,0.153903 0.536848,0.06495 z m 2.601227,-0.022 c 0.3890475,-0.237217 0.3845515,-0.777301 -0.0075,-0.906705 -0.306312,-0.101092 -0.639861,0.07085 -0.72084,0.371585 -0.11391,0.423021 0.351486,0.764931 0.728387,0.53512 z m 2.2340325,-0.325089 c 0.05657,-0.04152 0.137899,-0.171823 0.180736,-0.289561 0.06679,-0.183572 0.07082,-0.23765 0.02828,-0.379628 -0.123052,-0.410708 -0.704056,-0.283581 -0.829276,0.181453 -0.05854,0.217395 -0.01527,0.3768 0.137098,0.505004 0.144383,0.12149 0.301785,0.115864 0.483157,-0.01726 z m -7.1152931,8.99e-4 c 0.14459,-0.11708 0.164555,-0.494494 0.03608,-0.681996 -0.186827,-0.272656 -0.481337,-0.352979 -0.647134,-0.176498 -0.172569,0.183693 -0.155125,0.49988 0.04136,0.749669 0.149963,0.190647 0.407824,0.239904 0.5697,0.108825 z m 8.7251361,-0.503385 c 0.1745,-0.09339 0.295608,-0.593024 0.215854,-0.890519 -0.02997,-0.111785 -0.148482,-0.154893 -0.260712,-0.09483 -0.230273,0.123239 -0.358247,0.757675 -0.190274,0.943284 0.08876,0.09808 0.120016,0.103673 0.235132,0.04206 z M 2.9156089,50.532989 c 0.09713,-0.111768 0.11918,-0.273551 0.06912,-0.506982 -0.05384,-0.251046 -0.268731,-0.520891 -0.380621,-0.477955 -0.149511,0.05738 -0.190335,0.374012 -0.09084,0.704601 0.09755,0.324113 0.263704,0.439885 0.402344,0.280336 z m 5.5201366,-0.607466 c 0.170696,-0.081 0.271814,-0.256817 0.271814,-0.472611 0,-0.139932 -0.02532,-0.197879 -0.133702,-0.306089 -0.179175,-0.178877 -0.385549,-0.216336 -0.620147,-0.112561 -0.128096,0.05666 -0.198149,0.121684 -0.250927,0.23291 -0.211514,0.445732 0.269862,0.878107 0.732962,0.658351 z m 5.9842415,-0.582447 c 0.01027,-0.363024 0.0015,-0.509151 -0.02974,-0.4899 -0.108778,0.06723 -0.186529,0.771789 -0.110924,1.005159 0.06875,0.212203 0.125993,0.0025 0.140661,-0.515259 z m -8.3833075,0.36001 c 0.101112,-0.101111 0.120254,-0.153269 0.120254,-0.327681 0,-0.173175 -0.021,-0.231347 -0.127176,-0.352274 -0.370573,-0.422057 -0.9616616,-0.140897 -0.8188416,0.389496 0.102659,0.381248 0.5704366,0.545787 0.8257636,0.290459 z m 4.7923565,-0.01345 c 0.185425,-0.170283 0.251393,-0.419163 0.165556,-0.624597 -0.07721,-0.184798 -0.195418,-0.242839 -0.445592,-0.218801 -0.294323,0.02828 -0.449343,0.191297 -0.474892,0.49939 -0.01744,0.210262 -0.0095,0.236702 0.106349,0.35251 0.10315,0.103151 0.158466,0.125199 0.314094,0.125199 0.155822,0 0.214386,-0.02341 0.334485,-0.133701 z M 3.8646539,49.329515 c 0.149745,-0.117789 0.182133,-0.355174 0.07958,-0.583303 -0.148513,-0.330381 -0.377153,-0.461309 -0.55765,-0.319329 -0.09448,0.07431 -0.109311,0.116468 -0.109311,0.310586 0,0.272057 0.07516,0.466001 0.226826,0.585302 0.14084,0.110784 0.226257,0.112383 0.360553,0.0068 z m 8.9354551,-0.05245 c 0.185412,-0.185413 0.263735,-0.520676 0.172597,-0.738799 -0.08066,-0.193041 -0.233298,-0.242812 -0.388742,-0.126756 -0.195657,0.146078 -0.27037,0.286839 -0.289008,0.544491 -0.01591,0.219995 -0.0071,0.255122 0.08803,0.350234 0.141154,0.141154 0.254745,0.133212 0.417125,-0.02917 z M 2.4119049,48.674153 c 0.09989,-0.186642 0.0294,-0.731057 -0.11828,-0.913424 -0.0678,-0.08374 -0.08464,-0.08779 -0.147571,-0.03557 -0.05996,0.04977 -0.06827,0.113666 -0.05336,0.410057 0.02489,0.494431 0.192015,0.776594 0.319206,0.538936 z M 14.093559,48.56804 c 0.07401,-0.207831 0.08381,-0.778488 0.01457,-0.847883 -0.136038,-0.136323 -0.369031,0.380555 -0.329526,0.73103 0.03783,0.335651 0.213796,0.400933 0.314962,0.116853 z M 7.1489885,48.267901 c 0.104065,-0.09298 0.133239,-0.15602 0.14923,-0.32245 0.01804,-0.187775 0.0077,-0.220692 -0.111518,-0.356526 -0.218656,-0.249035 -0.609417,-0.283744 -0.801755,-0.07121 -0.105798,0.116906 -0.129097,0.410924 -0.04539,0.572794 0.154496,0.298759 0.571356,0.390118 0.809435,0.177396 z m 2.538181,0.03224 c 0.149618,-0.09122 0.254643,-0.295548 0.254643,-0.495408 0,-0.16803 -0.229091,-0.406552 -0.396991,-0.413336 -0.41094,-0.01661 -0.645199,0.177388 -0.645199,0.534297 0,0.157355 0.02064,0.201322 0.150239,0.320095 0.12138,0.111237 0.183941,0.137655 0.325685,0.137531 0.103322,-9.2e-5 0.231426,-0.03428 0.311623,-0.08318 z m 2.2375865,-0.365047 c 0.131669,-0.147349 0.212888,-0.416076 0.176216,-0.58304 -0.03219,-0.146541 -0.199629,-0.285086 -0.3443,-0.284879 -0.248554,3.07e-4 -0.535933,0.325106 -0.538642,0.608691 -0.0011,0.121051 0.101576,0.320414 0.194506,0.37746 0.128581,0.07893 0.389951,0.0186 0.51222,-0.118232 z m -7.1283201,0.01087 c 0.194671,-0.247485 0.06574,-0.685296 -0.252401,-0.857089 -0.20126,-0.108679 -0.354695,-0.05722 -0.457821,0.153551 -0.110252,0.225337 -0.06144,0.458363 0.137755,0.657552 0.127528,0.127529 0.183327,0.154381 0.320793,0.154381 0.130776,0 0.184667,-0.02321 0.251674,-0.108395 z m 8.7618851,-0.52528 c 0.171056,-0.18208 0.229041,-0.722054 0.09527,-0.887248 -0.06376,-0.07874 -0.08657,-0.084 -0.179931,-0.04146 -0.164927,0.07514 -0.288945,0.333378 -0.295422,0.615135 -0.0086,0.372783 0.179043,0.527566 0.380079,0.313572 z M 2.9467009,47.398914 c 0.109697,-0.204969 0.02823,-0.669212 -0.153877,-0.87691 -0.06817,-0.07774 -0.235715,-0.09707 -0.276032,-0.03184 -0.05376,0.08698 -0.06877,0.441916 -0.02547,0.602412 0.08959,0.332108 0.348404,0.506215 0.45538,0.306333 z m 5.5154386,-0.599918 c 0.150663,-0.07791 0.245487,-0.256059 0.245487,-0.461207 0,-0.539152 -0.825597,-0.640533 -1.021638,-0.125452 -0.07472,0.196328 -0.03687,0.339285 0.135458,0.511616 0.116424,0.116423 0.166708,0.137448 0.328731,0.137448 0.105206,0 0.245588,-0.02808 0.311962,-0.0624 z m 5.9578755,-0.556733 c 0.01581,-0.531922 -0.03171,-0.643409 -0.119055,-0.279299 -0.0547,0.228023 -0.06615,0.739834 -0.01828,0.817286 0.07461,0.120725 0.123439,-0.07054 0.137339,-0.537987 z m -8.4909135,0.43203 c 0.321772,-0.152691 0.303142,-0.680303 -0.03122,-0.884175 -0.269971,-0.164611 -0.6118176,-0.06678 -0.6843326,0.195846 -0.0783,0.283596 0.06414,0.571988 0.3423226,0.693073 0.166335,0.0724 0.211877,0.07182 0.373229,-0.0047 z m 4.8548315,-0.04214 c 0.148669,-0.09741 0.240732,-0.291258 0.240985,-0.50741 1.56e-4,-0.151936 -0.02098,-0.200212 -0.130711,-0.298259 -0.321246,-0.287032 -0.830418,-0.0046 -0.827527,0.45897 0.0012,0.207528 0.05385,0.297565 0.228699,0.391742 0.139262,0.07501 0.332519,0.0572 0.488554,-0.04505 z M 3.8920539,46.20547 c 0.121205,-0.121206 0.14759,-0.34453 0.06596,-0.558279 -0.130094,-0.340647 -0.471524,-0.506064 -0.61671,-0.298784 -0.07535,0.10758 -0.0863,0.487746 -0.01787,0.620923 0.150402,0.292749 0.40591,0.398855 0.568627,0.23614 z m 8.8736221,0.0071 c 0.245228,-0.197802 0.333132,-0.713567 0.152412,-0.894283 -0.08819,-0.08819 -0.273166,-0.07543 -0.404529,0.0279 -0.240482,0.189164 -0.310252,0.653915 -0.125849,0.838316 0.117918,0.117919 0.25404,0.128027 0.377966,0.02807 z M 2.4466579,45.19606 c -0.0167,-0.304157 -0.08758,-0.498148 -0.209332,-0.572922 -0.108922,-0.06689 -0.151732,0.03139 -0.15247,0.350033 -6.14e-4,0.290979 0.05357,0.505388 0.158508,0.626485 0.06278,0.07245 0.06807,0.07172 0.142176,-0.0198 0.06305,-0.07786 0.0741,-0.147273 0.06112,-0.383793 z m 11.6276481,0.3116 c 0.08019,-0.155064 0.1209,-0.493737 0.08674,-0.721534 -0.03778,-0.25194 -0.14982,-0.257007 -0.276598,-0.01251 -0.12436,0.239831 -0.13539,0.749218 -0.01808,0.835037 0.0932,0.06819 0.129593,0.05051 0.207941,-0.100993 z M 7.0216705,45.231303 c 0.512051,-0.204883 0.299537,-0.961672 -0.270048,-0.961672 -0.296107,0 -0.471204,0.183634 -0.471204,0.494175 0,0.249798 0.250827,0.494329 0.54426,0.530593 0.01651,0.0021 0.105158,-0.02635 0.196992,-0.0631 z m 2.662438,-0.03965 c 0.232525,-0.149738 0.3167285,-0.485051 0.177556,-0.707059 -0.25925,-0.413555 -0.949869,-0.188674 -0.963038,0.313589 -0.01034,0.394481 0.436398,0.618268 0.785482,0.39347 z M 4.6900899,44.923328 c 0.187531,-0.08544 0.256223,-0.450524 0.130509,-0.693628 -0.137465,-0.265829 -0.506478,-0.379833 -0.677122,-0.209192 -0.202801,0.202803 -0.115965,0.669628 0.159033,0.854949 0.155011,0.104461 0.240266,0.114993 0.38758,0.04787 z m 7.2019041,-0.07982 c 0.192337,-0.168874 0.273855,-0.493495 0.172936,-0.688655 -0.08427,-0.162947 -0.206084,-0.229539 -0.362635,-0.198229 -0.193832,0.03876 -0.349754,0.17597 -0.425564,0.374478 -0.187973,0.492196 0.236066,0.845346 0.615263,0.512406 z m 1.742045,-0.657658 c 0.100722,-0.196389 0.127681,-0.5965 0.04998,-0.741697 -0.118714,-0.221817 -0.413396,0.01383 -0.492242,0.393626 -0.110235,0.531 0.216543,0.788181 0.442266,0.348071 z M 2.9070099,44.310781 c 0.182882,-0.182884 0.04975,-0.846673 -0.191904,-0.956775 -0.07842,-0.03572 -0.112337,-0.03193 -0.162454,0.01819 -0.152791,0.15279 -0.09851,0.71401 0.08858,0.915886 0.117262,0.126527 0.158434,0.130044 0.265778,0.0227 z"
       id="path1" /><path
       style="fill:none;fill-opacity:1;fill-rule:evenodd;stroke:#000000;stroke-width:1;stroke-linecap:round;stroke-linejoin:round;stroke-dasharray:none;stroke-dashoffset:0;stroke-opacity:1;paint-order:normal"
       d="m 8.0938365,24.850553 0.0066,-5.188086"
       id="path2"
       sodipodi:nodetypes="cc" /><path
       style="fill:none;fill-opacity:1;fill-rule:evenodd;stroke:#000000;stroke-width:1;stroke-linecap:round;stroke-linejoin:round;stroke-dasharray:none;stroke-dashoffset:0;stroke-opacity:1;paint-order:normal"
       id="path3"
       sodipodi:type="arc"
       sodipodi:cx="-12.918618"
       sodipodi:cy="-19.564907"
       sodipodi:rx="4.8197365"
       sodipodi:ry="5.1453943"
       sodipodi:start="6.2747467"
       sodipodi:end="3.1459093"
       sodipodi:arc-type="arc"
       d="m -8.0990533,-19.608327 a 4.8197365,5.1453943 0 0 1 -2.3922417,4.488652 4.8197365,5.1453943 0 0 1 -4.837462,0.01064 4.8197365,5.1453943 0 0 1 -2.409553,-4.478086"
       sodipodi:open="true"
       transform="scale(-1)" /><path
       style="fill:none;fill-opacity:1;fill-rule:evenodd;stroke:#000000;stroke-width:1;stroke-linecap:round;stroke-linejoin:round;stroke-dasharray:none;stroke-dashoffset:0;stroke-opacity:1;paint-order:normal"
       d="M 17.74125,19.601061 17.67984,39.619626"
       id="path4" /><path
       style="fill:none;fill-opacity:1;fill-rule:evenodd;stroke:#000000;stroke-width:1;stroke-linecap:round;stroke-linejoin:round;stroke-dasharray:none;stroke-dashoffset:0;stroke-opacity:1;paint-order:normal"
       id="path5"
       sodipodi:type="arc"
       sodipodi:cx="22.039711"
       sodipodi:cy="39.895954"
       sodipodi:rx="4.3598714"
       sodipodi:ry="4.0835414"
       sodipodi:start="1.5708192"
       sodipodi:end="3.1470369"
       sodipodi:arc-type="arc"
       d="M 22.039611,43.979496 A 4.3598714,4.0835414 0 0 1 18.948401,42.77555 4.3598714,4.0835414 0 0 1 17.679904,39.873722"
       sodipodi:open="true" /><path
       style="fill:#000000"
       d="m 33.057108,49.317715 -0.113042,-0.03151 -0.02516,-0.106601 -0.02517,-0.1066 -0.661963,-0.239919 -0.661962,-0.239919 -0.04641,-0.104008 -0.04641,-0.104007 -0.17895,0.024 -0.17895,0.024 -0.574186,-0.20695 -0.574185,-0.206949 -0.281609,-0.04075 -0.281609,-0.04075 -0.22943,-0.0016 -0.229429,-0.0016 -0.05322,-0.03386 -0.05322,-0.03386 -0.01561,-0.131163 -0.01561,-0.131162 -0.298259,-0.109773 -0.298258,-0.109774 -0.192867,-0.07162 -0.192867,-0.07162 -0.02818,-0.0888 -0.02818,-0.0888 h -0.217729 -0.21773 l -0.393095,-0.132874 -0.393095,-0.132875 -0.636474,-0.145632 -0.636475,-0.145632 -0.103243,-0.04171 -0.103243,-0.04171 v -4.014428 -4.014386 l 0.09333,-0.04995 0.09333,-0.04995 1.08823,-0.04306 1.08823,-0.04306 0.734175,-0.04817 0.734175,-0.04817 6.28637,-0.480698 6.28637,-0.480699 0.504745,-0.04647 0.504745,-0.04647 0.412974,-0.04549 0.412973,-0.04549 0.573574,-0.07341 0.573574,-0.07341 0.360917,0.02455 0.360918,0.02455 0.235599,0.156941 0.235599,0.156942 0.114715,0.06977 0.114715,0.06977 0.757118,0.278942 0.757117,0.278941 2.047503,0.733984 2.047504,0.733983 0.682708,0.165726 0.682709,0.165726 0.137658,0.03426 0.137657,0.03426 0.01172,4.033698 0.01172,4.033699 -0.04236,0.04236 -0.04236,0.04236 -0.818251,0.03992 -0.818251,0.03992 -0.871833,0.0481 -0.871832,0.0481 -6.28637,0.480121 -6.286371,0.480122 -0.803003,0.07149 -0.803004,0.07149 -0.711231,0.08861 -0.711232,0.08861 -0.458859,-0.004 -0.458859,-0.004 z"
       id="path7" /><g
       id="g10"
       transform="translate(-15.50284,9.35)"><path
         id="path8"
         style="fill:#ffffff;fill-rule:evenodd;stroke-width:0.108211;stroke-linecap:round;stroke-linejoin:round"
         d="m 60.369318,27.627113 a 0.15351655,0.06140663 0 0 1 -0.153517,0.06141 0.15351655,0.06140663 0 0 1 -0.153516,-0.06141 0.15351655,0.06140663 0 0 1 0.153516,-0.06141 0.15351655,0.06140663 0 0 1 0.153517,0.06141 z" /><path
         id="use8"
         style="fill:#ffffff;fill-rule:evenodd;stroke-width:0.108211;stroke-linecap:round;stroke-linejoin:round"
         d="m 68.20826,30.384655 a 0.15351655,0.06140663 0 0 1 -0.153517,0.06141 0.15351655,0.06140663 0 0 1 -0.153516,-0.06141 0.15351655,0.06140663 0 0 1 0.153516,-0.06141 0.15351655,0.06140663 0 0 1 0.153517,0.06141 z" /><path
         id="use9"
         style="fill:#ffffff;fill-rule:evenodd;stroke-width:0.108211;stroke-linecap:round;stroke-linejoin:round"
         d="m 50.644444,32.034655 a 0.15351655,0.06140663 0 0 1 -0.153517,0.06141 0.15351655,0.06140663 0 0 1 -0.153516,-0.06141 0.15351655,0.06140663 0 0 1 0.153516,-0.06141 0.15351655,0.06140663 0 0 1 0.153517,0.06141 z" /><path
         id="use10"
         style="fill:#ffffff;fill-rule:evenodd;stroke-width:0.108211;stroke-linecap:round;stroke-linejoin:round"
         d="m 41.187821,29.11784 a 0.15351655,0.06140663 0 0 1 -0.153517,0.06141 0.15351655,0.06140663 0 0 1 -0.153516,-0.06141 0.15351655,0.06140663 0 0 1 0.153516,-0.06141 0.15351655,0.06140663 0 0 1 0.153517,0.06141 z" /><path
         style="fill:none;fill-opacity:1;fill-rule:evenodd;stroke:#ffffff;stroke-width:0.1;stroke-linecap:butt;stroke-linejoin:miter;stroke-dasharray:none;stroke-dashoffset:0;stroke-opacity:1;paint-order:normal"
         d="M 68.652625,32.484113 50.460906,33.927169 40.559087,31.041057"
         id="path10"
         sodipodi:nodetypes="ccc" /></g><path
       style="fill:none;fill-opacity:1;fill-rule:evenodd;stroke:#000000;stroke-width:1;stroke-linecap:butt;stroke-linejoin:miter;stroke-dasharray:none;stroke-dashoffset:0;stroke-opacity:1;paint-order:normal"
       d="m 22.036565,43.975622 11.213296,0.04875"
       id="path11" /><g
       transform="matrix(8.0283887e-4,0,0,-8.0283887e-4,56.523807,28.31836)"
       fill="#000000"
       stroke="none"
       id="g4"><path
         d="M 5950,11129 C 4208,11040 2547,10438 1160,9394 728,9069 208,8595 121,8448 50,8326 12,8202 3,8060 c -24,-384 227,-730 603,-831 106,-29 297,-31 399,-5 93,24 238,95 302,148 29,24 125,112 215,197 1105,1046 2483,1701 3978,1890 576,73 1224,73 1800,0 1081,-137 2108,-519 3014,-1122 373,-248 663,-480 1006,-806 167,-159 221,-202 317,-250 114,-57 202,-76 353,-76 154,0 214,13 346,76 436,206 593,740 343,1167 -39,66 -278,309 -474,483 -902,800 -1894,1375 -3035,1761 -1009,340 -2132,493 -3220,437 z"
         id="path1-5" /><path
         d="m 6090,8004 c -176,-11 -350,-27 -460,-40 -1257,-153 -2420,-671 -3390,-1508 -172,-149 -378,-356 -426,-427 -147,-222 -177,-520 -75,-767 162,-393 608,-594 1012,-457 136,46 206,94 369,250 493,471 1055,821 1683,1049 1018,369 2176,369 3194,0 634,-230 1172,-566 1690,-1056 137,-130 204,-178 313,-225 111,-47 221,-67 349,-60 122,6 197,24 298,72 152,71 282,187 362,322 127,215 147,500 51,733 -47,114 -109,196 -257,340 -651,636 -1468,1137 -2335,1435 -492,169 -953,267 -1503,321 -140,14 -751,26 -875,18 z"
         id="path2-7" /><path
         d="m 6155,4749 c -323,-25 -662,-105 -970,-229 -233,-93 -555,-283 -760,-446 -278,-223 -401,-365 -465,-541 -54,-151 -64,-341 -25,-488 41,-154 150,-321 277,-425 72,-59 213,-131 308,-157 94,-25 321,-25 410,1 155,45 245,100 400,241 225,206 470,333 764,397 85,19 132,22 306,22 174,0 221,-3 306,-22 294,-64 541,-192 763,-397 159,-145 260,-205 415,-245 108,-27 273,-27 382,0 166,42 335,149 444,282 58,71 131,214 155,303 39,147 29,337 -25,488 -51,139 -119,233 -277,379 -406,377 -916,646 -1453,766 -316,71 -638,95 -955,71 z"
         id="path3-6" /><path
         d="m 6205,1599 c -234,-57 -427,-212 -530,-424 -67,-137 -79,-196 -79,-365 0,-171 12,-229 81,-368 57,-117 176,-248 290,-318 261,-163 605,-163 866,0 114,71 233,201 289,318 71,144 83,199 83,368 0,171 -13,231 -80,365 -82,166 -197,281 -360,360 -173,85 -380,108 -560,64 z"
         id="path4-1" /></g><g
       style="fill:none"
       id="g11"
       transform="matrix(1.0766298,0,0,1.0766298,69.48416,11.72095)"><path
         d="m 20.5,8.5 v -3 C 20.5,5.23478 20.3946,4.98043 20.2071,4.79289 20.0196,4.60536 19.7652,4.5 19.5,4.5 H 4.5 C 4.23478,4.5 3.98043,4.60536 3.79289,4.79289 3.60536,4.98043 3.5,5.23478 3.5,5.5 v 3 C 3.5,8.76522 3.60536,9.01957 3.79289,9.20711 3.98043,9.39464 4.23478,9.5 4.5,9.5 4.23478,9.5 3.98043,9.60536 3.79289,9.79289 3.60536,9.98043 3.5,10.2348 3.5,10.5 v 3 c 0,0.2652 0.10536,0.5196 0.29289,0.7071 C 3.98043,14.3946 4.23478,14.5 4.5,14.5 4.23478,14.5 3.98043,14.6054 3.79289,14.7929 3.60536,14.9804 3.5,15.2348 3.5,15.5 v 3 c 0,0.2652 0.10536,0.5196 0.29289,0.7071 C 3.98043,19.3946 4.23478,19.5 4.5,19.5 h 15 c 0.2652,0 0.5196,-0.1054 0.7071,-0.2929 C 20.3946,19.0196 20.5,18.7652 20.5,18.5 v -3 c 0,-0.2652 -0.1054,-0.5196 -0.2929,-0.7071 C 20.0196,14.6054 19.7652,14.5 19.5,14.5 c 0.2652,0 0.5196,-0.1054 0.7071,-0.2929 C 20.3946,14.0196 20.5,13.7652 20.5,13.5 v -3 C 20.5,10.2348 20.3946,9.98043 20.2071,9.79289 20.0196,9.60536 19.7652,9.5 19.5,9.5 19.7652,9.5 20.0196,9.39464 20.2071,9.20711 20.3946,9.01957 20.5,8.76522 20.5,8.5 Z m -1,10 h -15 v -3 h 15 z m 0,-5 h -15 v -3 h 15 z m 0,-5 h -15 v -3 h 15 z"
         fill="#000000"
         id="path1-8" /><path
         d="M 6.25,7.75 C 6.66421,7.75 7,7.41421 7,7 7,6.58579 6.66421,6.25 6.25,6.25 5.83579,6.25 5.5,6.58579 5.5,7 c 0,0.41421 0.33579,0.75 0.75,0.75 z"
         fill="#000000"
         id="path2-9" /><path
         d="M 8.75,7.75 C 9.16421,7.75 9.5,7.41421 9.5,7 9.5,6.58579 9.16421,6.25 8.75,6.25 8.33579,6.25 8,6.58579 8,7 8,7.41421 8.33579,7.75 8.75,7.75 Z"
         fill="#000000"
         id="path3-2" /><path
         d="M 6.25,12.75 C 6.66421,12.75 7,12.4142 7,12 7,11.5858 6.66421,11.25 6.25,11.25 5.83579,11.25 5.5,11.5858 5.5,12 c 0,0.4142 0.33579,0.75 0.75,0.75 z"
         fill="#000000"
         id="path4-7" /><path
         d="M 8.75,12.75 C 9.16421,12.75 9.5,12.4142 9.5,12 9.5,11.5858 9.16421,11.25 8.75,11.25 8.33579,11.25 8,11.5858 8,12 c 0,0.4142 0.33579,0.75 0.75,0.75 z"
         fill="#000000"
         id="path5-9" /><path
         d="M 6.25,17.75 C 6.66421,17.75 7,17.4142 7,17 7,16.5858 6.66421,16.25 6.25,16.25 5.83579,16.25 5.5,16.5858 5.5,17 c 0,0.4142 0.33579,0.75 0.75,0.75 z"
         fill="#000000"
         id="path6" /><path
         d="M 8.75,17.75 C 9.16421,17.75 9.5,17.4142 9.5,17 9.5,16.5858 9.16421,16.25 8.75,16.25 8.33579,16.25 8,16.5858 8,17 c 0,0.4142 0.33579,0.75 0.75,0.75 z"
         fill="#000000"
         id="path7-5" /></g><path
       style="fill:#000000;stroke-width:0.312051"
       d="m 35.93306,30.876474 -0.369884,-0.01879 -0.356674,-0.05735 -0.356674,-0.05735 -0.343635,-0.08762 -0.343634,-0.08762 -0.303663,-0.110898 -0.303664,-0.110897 -0.330111,-0.156998 -0.330111,-0.156999 -0.204889,-0.120117 -0.204888,-0.120118 -0.01554,-0.02514 -0.01554,-0.02514 0.227298,-0.302611 0.227298,-0.302612 h 0.0088 0.0088 l 0.274805,0.158786 0.274803,0.158785 0.304276,0.128522 0.304276,0.128522 0.290181,0.09338 0.290181,0.09338 0.30729,0.06851 0.30729,0.06851 0.366428,0.04262 0.366428,0.04262 0.541616,-0.01415 0.541617,-0.01415 0.275838,-0.04362 0.275839,-0.04362 0.345038,-0.08729 0.345039,-0.08729 0.264203,-0.09885 0.264203,-0.09885 0.264203,-0.126917 0.264203,-0.126917 0.163746,-0.09534 0.163746,-0.09534 0.238173,0.315405 0.238173,0.315406 -0.05944,0.03894 -0.05944,0.03894 -0.302853,0.160357 -0.302852,0.160355 -0.364023,0.145995 -0.364024,0.145994 -0.282293,0.08223 -0.282294,0.08223 -0.304814,0.06332 -0.304814,0.06332 -0.356674,0.03843 -0.356674,0.03843 -0.277413,0.0092 -0.277414,0.0092 z m 0.09247,-1.412842 -0.118891,-0.01064 -0.224573,-0.02759 -0.224573,-0.02759 -0.299066,-0.06649 -0.299066,-0.06649 -0.295391,-0.100491 -0.29539,-0.100491 -0.243896,-0.108396 -0.243896,-0.108395 -0.192039,-0.108391 -0.192039,-0.108392 -0.02292,-0.02227 -0.02292,-0.02227 0.180676,-0.248643 0.180676,-0.248644 0.317811,0.165709 0.317811,0.165708 0.241949,0.09217 0.241948,0.09217 0.326089,0.08023 0.326088,0.08023 0.224572,0.03126 0.224573,0.03126 0.462355,-9.67e-4 0.462356,-9.67e-4 0.277413,-0.04333 0.277413,-0.04333 0.303834,-0.08068 0.303833,-0.08068 0.290624,-0.118634 0.290623,-0.118634 0.166145,-0.0925 0.166145,-0.0925 0.02444,0.0085 0.02444,0.0085 0.17311,0.237782 0.173111,0.237783 -0.04665,0.03525 -0.04665,0.03525 -0.303833,0.152945 -0.303834,0.152946 -0.260603,0.09738 -0.260602,0.09738 -0.307434,0.07649 -0.307434,0.07649 -0.281209,0.04091 -0.28121,0.04091 -0.392509,0.01045 -0.392507,0.01045 z m -0.290623,-1.421691 -0.198153,-0.03499 -0.250992,-0.06855 -0.250993,-0.06855 -0.171732,-0.06859 -0.171732,-0.06859 -0.244388,-0.122391 -0.244388,-0.122391 v -0.02002 -0.02002 l 0.120569,-0.172475 0.120569,-0.172476 0.02572,-0.0159 0.02573,-0.0159 0.233992,0.120853 0.233992,0.120852 0.273616,0.09155 0.273615,0.09155 0.250993,0.04458 0.250993,0.04458 0.383094,-0.0014 0.383095,-0.0014 0.237783,-0.04184 0.237782,-0.04184 0.190959,-0.05301 0.190958,-0.05301 0.244977,-0.107897 0.244976,-0.107897 0.04223,-0.0131 0.04223,-0.0131 0.139421,0.188068 0.13942,0.188069 -0.0099,0.009 -0.0099,0.009 -0.220725,0.110434 -0.220724,0.110433 -0.204029,0.07523 -0.204028,0.07523 -0.315015,0.07266 -0.315016,0.07266 -0.528406,0.0077 -0.528406,0.0077 z m 0.232918,-1.31035 -0.203019,-0.02324 -0.229667,-0.05455 -0.229667,-0.05455 -0.21919,-0.102716 -0.219191,-0.102716 -0.127523,-0.08691 -0.127523,-0.08691 -0.177585,-0.170355 -0.177584,-0.170356 -0.106209,-0.163016 -0.10621,-0.163016 -0.06945,-0.170235 -0.06945,-0.170235 -0.04932,-0.237783 -0.04932,-0.237783 v -0.369884 -0.369884 l 0.04932,-0.237783 0.04932,-0.237783 0.06765,-0.165815 0.06765,-0.165816 0.121008,-0.182022 0.121008,-0.182021 0.207131,-0.193779 0.207132,-0.193779 0.148236,-0.08863 0.148237,-0.08863 0.15949,-0.06442 0.159489,-0.06442 0.197914,-0.05062 0.197914,-0.05062 0.311026,-0.02701 0.311027,-0.02701 0.303277,0.02646 0.303277,0.02646 0.242445,0.06437 0.242446,0.06437 0.170694,0.0774 0.170694,0.0774 0.168107,0.114006 0.168107,0.114006 0.1288,0.12018 0.128799,0.12018 0.115203,0.161336 0.115203,0.161337 0.07904,0.168917 0.07904,0.168917 0.05823,0.211363 0.05823,0.211362 0.0014,0.488776 0.0014,0.488775 -0.05979,0.220257 -0.05979,0.220256 -0.07798,0.171988 -0.07798,0.171989 -0.118928,0.166664 -0.118929,0.166664 -0.174978,0.157923 -0.174978,0.157924 -0.199069,0.113899 -0.199069,0.113898 -0.205592,0.07275 -0.205593,0.07275 -0.209404,0.03972 -0.209404,0.03972 -0.30126,0.01275 -0.30126,0.01275 z m 0.674979,-1.069357 0.181337,-0.03842 0.111496,-0.06534 0.111496,-0.06534 0.09572,-0.105952 0.09572,-0.105953 0.05561,-0.10901 0.05561,-0.10901 0.05184,-0.202619 0.05184,-0.20262 5.93e-4,-0.303833 5.93e-4,-0.303833 -0.0304,-0.145312 -0.03041,-0.145311 -0.07561,-0.160468 -0.07561,-0.160468 -0.146116,-0.13819 -0.146116,-0.13819 -0.151987,-0.0712 -0.151986,-0.0712 -0.303834,4.36e-4 -0.303833,4.37e-4 -0.153154,0.06134 -0.153154,0.06134 -0.140898,0.137562 -0.140899,0.13756 -0.0669,0.132015 -0.0669,0.132014 -0.04689,0.157394 -0.04689,0.157393 -3.43e-4,0.343464 -3.74e-4,0.343464 0.04535,0.168953 0.04535,0.168953 0.06902,0.12681 0.06902,0.12681 0.121214,0.121214 0.121215,0.121215 0.134179,0.06565 0.134179,0.06565 0.117695,0.02307 0.117694,0.02307 0.132102,0.0024 0.132101,0.0024 z m 10.505676,1.005482 -0.171732,-0.03641 -0.151534,-0.05711 -0.151535,-0.05711 -0.160507,-0.107182 -0.160506,-0.107182 -0.103175,-0.136654 -0.103175,-0.136655 -0.05362,-0.121207 -0.05362,-0.121206 -0.03096,-0.199147 -0.03096,-0.199146 0.03098,-0.219103 0.03099,-0.219103 0.07752,-0.165657 0.07752,-0.165656 0.08745,-0.10924 0.08745,-0.10924 0.165566,-0.118392 0.165567,-0.118392 0.217528,-0.09176 0.217528,-0.09176 0.264203,-0.07406 0.264203,-0.07406 0.317044,-0.05474 0.317043,-0.05474 0.264203,-0.02931 0.264203,-0.02931 0.06189,-0.01282 0.06189,-0.01282 -0.009,-0.261227 -0.009,-0.261226 -0.05518,-0.07452 -0.05518,-0.07452 -0.11102,-0.06202 -0.11102,-0.06202 -0.203683,-0.01392 -0.203684,-0.01392 -0.153506,0.03191 -0.153507,0.03191 -0.09507,0.08347 -0.09507,0.08347 -0.06161,0.132293 -0.06161,0.132294 -2.59e-4,0.04624 -2.58e-4,0.04624 h -0.696893 -0.696892 l 0.01186,-0.125497 0.01186,-0.125496 0.05066,-0.174903 0.05066,-0.174904 0.105601,-0.158138 0.105601,-0.158139 0.125859,-0.09808 0.12586,-0.09808 0.158521,-0.07543 0.158522,-0.07543 0.221122,-0.05625 0.221122,-0.05625 0.316941,-0.02203 0.316942,-0.02202 0.360432,0.02107 0.360431,0.02107 0.171527,0.03053 0.171529,0.03053 0.145312,0.04114 0.14531,0.04114 0.158522,0.07288 0.158522,0.07288 0.09247,0.07015 0.09247,0.07015 0.0849,0.107171 0.0849,0.10717 0.05984,0.149415 0.05985,0.149414 0.01644,1.611638 0.01645,1.611639 0.04179,0.158522 0.0418,0.158522 0.01782,0.04624 0.01782,0.04624 h -0.66129 -0.661217 l -0.04175,-0.183552 -0.04175,-0.183552 v -0.03649 -0.03649 l -0.11701,0.112114 -0.11701,0.112115 -0.167032,0.07972 -0.167032,0.07972 -0.237759,0.07022 -0.23776,0.07022 -0.343464,0.01012 -0.343464,0.01012 z m 1.281385,-1.015161 0.132102,-0.05954 0.124208,-0.132297 0.124209,-0.132298 0.05786,-0.150285 0.05786,-0.150286 0.01281,-0.297228 0.01281,-0.297229 h -0.01621 -0.01621 l -0.493745,0.133975 -0.493745,0.133975 -0.130824,0.04971 -0.130824,0.04971 -0.102427,0.07098 -0.102426,0.07098 -0.05273,0.08531 -0.05273,0.08531 v 0.138201 0.1382 l 0.04244,0.08944 0.04244,0.08944 0.09003,0.05564 0.09003,0.05564 0.07229,0.02318 0.07228,0.02319 0.264203,-0.0071 0.264203,-0.0071 z M 29.182672,23.588109 v -3.012077 h 0.805819 0.805819 v 2.377828 2.377827 h 1.255443 1.255443 l -0.0071,0.627482 -0.0071,0.627483 -2.054179,0.0068 -2.054179,0.0068 z m 10.620963,-0.0026 v -3.014278 l 1.856027,0.01252 1.856026,0.01252 0.224573,0.04338 0.224572,0.04338 0.171732,0.05546 0.171732,0.05546 0.184942,0.09539 0.184943,0.09539 0.185551,0.185356 0.185552,0.185355 0.09665,0.198153 0.09665,0.198152 0.04376,0.158522 0.04376,0.158522 0.01369,0.369884 0.01369,0.369884 -0.04467,0.171732 -0.04467,0.171732 -0.09625,0.183576 -0.09625,0.183575 -0.185522,0.187078 -0.185522,0.187078 -0.211362,0.108912 -0.211363,0.108912 -0.113382,0.03354 -0.113382,0.03354 0.01159,0.03021 0.01159,0.03021 0.689713,1.139008 0.689713,1.139009 0.01597,0.0416 0.01596,0.0416 -0.907715,-5.94e-4 -0.907722,-5.92e-4 -0.634087,-1.082258 -0.634088,-1.082258 -0.495381,-3.75e-4 -0.49538,-3.74e-4 v 1.083232 1.083233 h -0.80582 -0.805819 z m 3.558498,-0.3737 0.137068,-0.07227 0.06687,-0.08767 0.06687,-0.08767 0.04482,-0.104259 0.04482,-0.10426 0.0014,-0.224572 0.0014,-0.224573 -0.04593,-0.133839 -0.04593,-0.13384 -0.09857,-0.09443 -0.09857,-0.09443 -0.07926,-0.03933 -0.07926,-0.03933 -0.140008,-0.02963 -0.140007,-0.02963 h -0.778053 -0.778099 v 0.793915 0.793915 l 0.891685,-0.0079 0.891686,-0.0079 z m -5.315448,-1.658493 -0.132102,-0.07863 -0.274846,-0.108215 -0.274846,-0.108214 -0.293191,-0.06877 -0.29319,-0.06877 -0.475566,-3.44e-4 -0.475565,-3.43e-4 -0.270377,0.05867 -0.270377,0.05867 -0.191978,0.06885 -0.191979,0.06885 -0.198152,0.09557 -0.198153,0.09557 -0.0178,2.92e-4 -0.0178,2.91e-4 -0.135376,-0.178827 -0.135375,-0.178827 0.01814,-0.02934 0.01814,-0.02934 0.240719,-0.113893 0.240718,-0.113892 0.237783,-0.07926 0.237783,-0.07926 0.277413,-0.05928 0.277413,-0.05928 0.515196,-0.0015 0.515196,-0.0015 0.250993,0.04706 0.250993,0.04706 0.317044,0.105787 0.317044,0.105788 0.271678,0.134865 0.271679,0.134865 0.01186,0.01919 0.01186,0.01919 -0.136038,0.188242 -0.136038,0.188243 -0.0154,-4.37e-4 -0.0154,-4.37e-4 z m 0.686928,-1.034465 -0.184942,-0.107268 -0.224573,-0.09927 -0.224573,-0.09927 -0.290623,-0.09337 -0.290623,-0.09337 -0.211363,-0.04154 -0.211362,-0.04154 -0.22388,-0.02706 -0.223879,-0.02706 h -0.37583 -0.375829 l -0.304521,0.03992 -0.304521,0.03992 -0.30233,0.07795 -0.302331,0.07795 -0.272977,0.108134 -0.272977,0.108134 -0.221877,0.117952 -0.221878,0.117951 -0.0044,-0.0071 -0.0044,-0.0071 -0.176624,-0.243458 -0.176624,-0.243459 v -0.01276 -0.01276 l 0.220573,-0.120234 0.220573,-0.120235 0.288018,-0.121071 0.288018,-0.121071 0.313087,-0.09049 0.313088,-0.09049 0.29458,-0.05547 0.294579,-0.05547 0.518661,-0.01373 0.51866,-0.01373 0.260739,0.03008 0.260738,0.03008 0.277413,0.05502 0.277414,0.05502 0.394357,0.129514 0.394357,0.129513 0.371832,0.185443 0.371831,0.185444 0.04944,0.03783 0.04944,0.03783 -0.18061,0.252342 -0.180609,0.252342 -0.01414,-0.0014 -0.01414,-0.0014 z m 0.9115,-0.997549 -0.06605,-0.04908 -0.250994,-0.133313 -0.250992,-0.133313 -0.290624,-0.118526 -0.290623,-0.118526 -0.313105,-0.09489 -0.313105,-0.09489 -0.360613,-0.06678 -0.360613,-0.06678 -0.431393,-0.03019 -0.431393,-0.03019 -0.427267,0.03124 -0.427267,0.03124 -0.237782,0.04086 -0.237783,0.04086 -0.343464,0.08955 -0.343464,0.08955 -0.237783,0.09155 -0.237783,0.09155 -0.184942,0.08373 -0.184942,0.08373 -0.232716,0.133139 -0.232715,0.133139 -0.01209,-0.01209 -0.01208,-0.01209 -0.224479,-0.29958 -0.224478,-0.29958 0.02013,-0.01874 0.02013,-0.01874 0.242148,-0.133541 0.242148,-0.133542 0.180577,-0.08264 0.180577,-0.08265 0.257896,-0.103483 0.257897,-0.103483 0.31014,-0.09146 0.31014,-0.09146 0.330254,-0.06588 0.330254,-0.06588 0.237783,-0.0343 0.237782,-0.0343 0.686928,4.68e-4 0.686929,4.68e-4 0.303833,0.04708 0.303833,0.04708 0.296323,0.06587 0.296323,0.06587 0.217106,0.06498 0.217105,0.06498 0.22634,0.08228 0.226341,0.08228 0.325479,0.154515 0.32548,0.154514 0.235952,0.135025 0.235952,0.135025 v 0.01553 0.01553 l -0.224984,0.299531 -0.224983,0.29953 -0.03261,-8.42e-4 -0.03261,-8.43e-4 z"
       id="path12" /><path
       style="fill:none;fill-opacity:1;fill-rule:evenodd;stroke:#000000;stroke-width:1;stroke-linecap:butt;stroke-linejoin:miter;stroke-dasharray:0.5,0.5;stroke-dashoffset:0;stroke-opacity:1;paint-order:normal"
       d="M 36.059702,36.611284 V 32.129679"
       id="path13" /><path
       style="fill:none;fill-opacity:1;fill-rule:evenodd;stroke:#000000;stroke-width:1;stroke-linecap:butt;stroke-linejoin:miter;stroke-dasharray:0.499999, 0.499999;stroke-dashoffset:0;stroke-opacity:1;paint-order:normal"
       d="m 51.366115,24.752263 h 5.791618"
       id="path14" /><path
       style="fill:none;fill-opacity:1;fill-rule:evenodd;stroke:#000000;stroke-width:1;stroke-linecap:butt;stroke-linejoin:miter;stroke-dasharray:0.499999, 0.499999;stroke-dashoffset:0;stroke-opacity:1;paint-order:normal"
       d="m 66.327792,24.683315 h 6.136354"
       id="path15" /></g></svg>
